PathFileType	4	(X/Y/Z)	Walk4.trc
DataRate	CameraRate	NumFrames	NumMarkers	Units	OrigDataRate	OrigDataStartFrame	OrigNumFrames
200.000000	200.000000	5	61	mm	200.000000	673	718
Frame#	Times		RCAR		LToe		LLFC		RWRU		RACR1		RFA1		RFHD		LUA1		LFA1		LCAR		RWRR		LElbow		STRN		RLFC		LACR1		LWRU		RTH3		RTB2		LWRR		C7		LFHD		RToe		RMFC		RMT1		RTH2		RMT5		LTH3		LPSI		RPSI		RTB3		LTH4		LTB1		RASI		RCAL		RTB1		LTB3		LTB4		CLAV		LTH2		LTH1		LMT5		RTB4		LTB2		LMT1		RLMAL		RMMAL		LBHD		LMFC		RBHD		RUA1		RElbow		LLMAL		RBack		LASI		RTH1		RTH4		T10		LCAL		LElbowM		LMMAL		RElbowM
			X1	Y1	Z1	X2	Y2	Z2	X3	Y3	Z3	X4	Y4	Z4	X5	Y5	Z5	X6	Y6	Z6	X7	Y7	Z7	X8	Y8	Z8	X9	Y9	Z9	X10	Y10	Z10	X11	Y11	Z11	X12	Y12	Z12	X13	Y13	Z13	X14	Y14	Z14	X15	Y15	Z15	X16	Y16	Z16	X17	Y17	Z17	X18	Y18	Z18	X19	Y19	Z19	X20	Y20	Z20	X21	Y21	Z21	X22	Y22	Z22	X23	Y23	Z23	X24	Y24	Z24	X25	Y25	Z25	X26	Y26	Z26	X27	Y27	Z27	X28	Y28	Z28	X29	Y29	Z29	X30	Y30	Z30	X31	Y31	Z31	X32	Y32	Z32	X33	Y33	Z33	X34	Y34	Z34	X35	Y35	Z35	X36	Y36	Z36	X37	Y37	Z37	X38	Y38	Z38	X39	Y39	Z39	X40	Y40	Z40	X41	Y41	Z41	X42	Y42	Z42	X43	Y43	Z43	X44	Y44	Z44	X45	Y45	Z45	X46	Y46	Z46	X47	Y47	Z47	X48	Y48	Z48	X49	Y49	Z49	X50	Y50	Z50	X51	Y51	Z51	X52	Y52	Z52	X53	Y53	Z53	X54	Y54	Z54	X55	Y55	Z55	X56	Y56	Z56	X57	Y57	Z57	X58	Y58	Z58	X59	Y59	Z59	X60	Y60	Z60	X61	Y61	Z61

673	3.365	1099.1	887.97	348.8	1171.6	32.34	-55.854	981.44	507.62	-161.69	1104.8	926.83	284.46	1016.5	1520.4	165.99	1043.3	1062	309.66	1176.3	1688	53.257	996.37	1358.8	-283.5	1067.7	1070.8	-338.91	1134.9	917.53	-350.82	1036.1	919.62	341.15	967.28	1190.1	-335.14	1126.6	1306.4	-23.776	1091	541.4	189.21	1001.4	1541.4	-201.54	1056.9	939.01	-350.68	1053.1	656.59	190.75	1008.7	325.98	165.74	1130	954.18	-293.47	906.28	1575.6	-7.9188	1183.2	1689.9	-52.766	1005.4	47.859	113.98	1091.6	525.3	43.659	968.7	81.893	96.485	1074.2	759.33	199.99	917.01	80.836	179.44	1000	654.92	-190.14	830.62	1088.6	-76.103	830.16	1078.3	32.783	958.31	260.87	98.135	993.88	739.43	-209.73	1019.9	366.85	-50.281	1043.6	1056.2	144.28	777.08	188.1	95.77	1076.3	390.03	113.3	1001.4	196.73	-37.29	1010.9	280.69	-49.749	1069.4	1479.4	-31.378	1052.7	746.66	-203.42	987.6	825.11	-227.92	1067.3	28.51	-125.74	1014	329.94	98.617	1024.5	275.93	-88.727	1117.3	46.36	-37.482	842.83	186.98	142.62	888.47	192.72	52.484	1017.4	1709.1	-80.864	989.48	511.54	-19.33	1006.1	1710.6	60.337	993.79	1343.4	244.12	949.91	1185.5	293.32	977.96	97.835	7.6142	846.25	1461	110.74	1055.2	1047.2	-178.19	986.78	815.94	197.33	1019.5	734.06	194.96	848.87	1218.1	-24.078	890.25	44.705	-46.583	934.72	1159.5	-251.17	953.55	66.11	-91.796	925.78	1155.6	203.4
674	3.37	1102.5	888.16	348.59	1171.6	32.346	-55.875	983.25	507.55	-161.94	1108.3	927.06	284.3	1020.8	1520.4	165.77	1046.7	1062.1	309.43	1180.8	1688	53.158	1001.6	1359	-283.96	1074.4	1071.5	-339.24	1142.7	918.82	-350.98	1039.5	919.71	340.76	973.23	1190.3	-335.71	1131.2	1306.5	-24.12	1098.9	542.22	188.45	1006.2	1541.6	-201.84	1064.5	939.75	-350.89	1060.3	657.52	190.58	1020.7	325	165.17	1137.4	955.45	-293.65	910.85	1575.7	-8.323	1187.8	1690	-52.844	1024	47.278	114.12	1098.8	526.2	43.147	986.55	80.178	96.435	1080.7	760.46	199.79	934.76	78.107	179.18	1002.7	654.82	-190.33	835.16	1088.8	-76.297	834.79	1078.4	32.605	971.93	258.71	97.598	997.04	739.37	-209.84	1020.8	366.38	-50.686	1048.5	1056.4	143.53	792.28	181.63	94.944	1086.1	390.6	112.22	1001.8	196.55	-37.343	1012.5	280.14	-52.402	1074.1	1479.5	-31.658	1055.9	746.29	-203.59	991.26	825.05	-228.01	1067.3	28.482	-125.78	1026	328.65	98.337	1023.9	276.22	-84.872	1117.3	46.38	-37.53	857.96	182.21	141.99	903.69	189.07	51.921	1022.2	1709.2	-81.104	991.48	511.41	-19.605	1010.7	1710.7	60.088	997.45	1343.5	243.89	953.24	1185.6	293.03	978.09	97.951	7.5607	850.58	1461.1	110.17	1059.7	1047.3	-178.66	992.88	816.45	197.3	1026.2	734.76	194.95	853.46	1218.2	-24.437	890.21	44.719	-46.561	940.79	1159.5	-251.75	953.57	66.134	-91.79	929.23	1155.7	203.01
675	3.375	1105.9	888.31	348.38	1171.6	32.348	-55.888	985.11	507.45	-162.18	1111.8	927.23	284.13	1025	1520.3	165.54	1050	1062.2	309.2	1185.4	1688	53.066	1006.8	1359.3	-284.41	1081.1	1072.3	-339.55	1150.4	920.08	-351.11	1042.9	919.76	340.39	979.16	1190.4	-336.27	1135.8	1306.5	-24.461	1106.7	542.99	187.74	1010.9	1541.7	-202.13	1072.1	940.46	-351.08	1067.4	658.4	190.44	1032.7	323.99	164.61	1144.9	956.7	-293.81	915.43	1575.8	-8.7122	1192.4	1690	-52.913	1042.7	46.799	114.25	1105.9	526.99	42.669	1004.5	78.543	96.396	1087.3	761.52	199.58	952.6	75.442	178.91	1005.4	654.7	-190.53	839.7	1088.9	-76.481	839.43	1078.4	32.44	985.59	256.56	97.07	1000.2	739.29	-209.94	1021.8	365.89	-51.085	1053.4	1056.4	142.79	807.69	175.13	94.073	1095.8	391.19	111.13	1002.3	196.36	-37.388	1014.3	279.52	-55.53	1078.7	1479.5	-31.938	1059.1	745.92	-203.76	994.93	824.97	-228.08	1067.2	28.453	-125.82	1038.1	327.37	98.084	1023.2	276.55	-80.606	1117.3	46.401	-37.572	873.22	177.42	141.33	919.06	185.42	51.334	1026.9	1709.2	-81.334	993.55	511.27	-19.884	1015.2	1710.7	59.848	1001.1	1343.5	243.67	956.61	1185.7	292.73	978.23	98.066	7.5093	854.91	1461.2	109.61	1064.1	1047.3	-179.1	998.95	816.92	197.31	1032.8	735.42	194.99	858.04	1218.2	-24.777	890.17	44.734	-46.536	946.83	1159.5	-252.31	953.59	66.163	-91.782	932.7	1155.8	202.64
676	3.38	1109.3	888.41	348.17	1171.6	32.346	-55.893	987.01	507.34	-162.42	1115.2	927.36	283.96	1029.3	1520.3	165.32	1053.4	1062.3	308.96	1189.9	1687.9	52.981	1011.9	1359.4	-284.85	1087.7	1073	-339.84	1158.1	921.31	-351.21	1046.3	919.77	340.03	985.06	1190.5	-336.81	1140.4	1306.5	-24.795	1114.4	543.68	187.07	1015.7	1541.8	-202.41	1079.6	941.14	-351.24	1074.4	659.23	190.33	1044.8	322.96	164.07	1152.3	957.93	-293.94	920	1575.8	-9.0859	1197	1690	-52.973	1061.5	46.435	114.38	1112.9	527.68	42.226	1022.5	77.008	96.357	1093.8	762.51	199.36	970.52	72.861	178.63	1008.2	654.57	-190.72	844.24	1089	-76.655	844.08	1078.4	32.291	999.3	254.42	96.551	1003.5	739.18	-210.04	1022.9	365.4	-51.467	1058.3	1056.4	142.07	823.29	168.62	93.17	1105.4	391.81	110.05	1002.7	196.15	-37.425	1016.3	278.8	-59.122	1083.3	1479.5	-32.216	1062.3	745.54	-203.92	998.62	824.86	-228.15	1067.2	28.423	-125.87	1050.1	326.11	97.852	1022.4	276.91	-76.056	1117.4	46.424	-37.611	888.61	172.63	140.65	934.57	181.8	50.725	1031.5	1709.3	-81.555	995.68	511.13	-20.164	1019.7	1710.7	59.616	1004.9	1343.5	243.45	960.01	1185.8	292.44	978.37	98.172	7.4618	859.26	1461.2	109.07	1068.5	1047.3	-179.49	1005	817.36	197.36	1039.4	736.04	195.05	862.63	1218.3	-25.098	890.14	44.752	-46.511	952.85	1159.4	-252.86	953.63	66.2	-91.77	936.19	1155.9	202.28
677	3.385	1112.7	888.46	347.95	1171.7	32.34	-55.892	988.97	507.22	-162.65	1118.7	927.43	283.78	1033.6	1520.1	165.1	1056.8	1062.3	308.73	1194.4	1687.9	52.901	1017.1	1359.6	-285.28	1094.3	1073.7	-340.1	1165.7	922.5	-351.28	1049.6	919.75	339.68	990.94	1190.6	-337.34	1144.9	1306.5	-25.122	1121.9	544.3	186.46	1020.4	1541.8	-202.69	1087.1	941.78	-351.37	1081.4	660.01	190.25	1056.8	321.91	163.54	1159.6	959.14	-294.06	924.57	1575.7	-9.4439	1201.6	1690	-53.025	1080.2	46.198	114.48	1119.7	528.27	41.816	1040.6	75.588	96.308	1100.2	763.43	199.14	988.5	70.377	178.33	1011	654.42	-190.91	848.78	1089.1	-76.818	848.73	1078.4	32.156	1013	252.32	96.043	1006.7	739.04	-210.12	1024.1	364.91	-51.826	1063.3	1056.4	141.37	839.06	162.11	92.246	1114.9	392.41	108.99	1003.2	195.93	-37.455	1018.5	278.01	-63.132	1087.9	1479.5	-32.491	1065.6	745.15	-204.08	1002.3	824.72	-228.21	1067.2	28.391	-125.92	1062.1	324.89	97.635	1021.7	277.27	-71.399	1117.4	46.448	-37.645	904.12	167.86	139.96	950.2	178.23	50.096	1036.2	1709.2	-81.767	997.89	510.97	-20.443	1024.2	1710.6	59.392	1008.6	1343.4	243.23	963.44	1185.8	292.15	978.51	98.263	7.42	863.61	1461.2	108.55	1072.9	1047.3	-179.85	1011	817.77	197.44	1045.9	736.61	195.15	867.21	1218.2	-25.401	890.11	44.773	-46.484	958.83	1159.3	-253.4	953.68	66.244	-91.753	939.7	1155.9	201.93
